<?xml version="1.0" encoding="UTF-8"?>
<svg width="16px" height="16px" viewBox="0 0 16 16" version="1.1" xmlns="http://www.w3.org/2000/svg" xmlns:xlink="http://www.w3.org/1999/xlink">
    <title>33113CF1-D8E4-4F94-96E4-55C935A35550</title>
    <g id="Page-1" stroke="none" stroke-width="1" fill="none" fill-rule="evenodd">
        <g id="SÄkums---Footer" transform="translate(-180.000000, -985.000000)" fill="#239B48">
            <g id="Group-16" transform="translate(150.000000, 782.000000)">
                <g id="Group-8" transform="translate(30.000000, 30.000000)">
                    <g id="Group-7" transform="translate(0.000000, 99.000000)">
                        <g id="Group-20" transform="translate(0.000000, 42.000000)">
                            <g id="Icon" transform="translate(0.000000, 32.000000)">
                                <path d="M8,0 C12.418278,0 16,3.581722 16,8 C16,12.418278 12.418278,16 8,16 C3.581722,16 0,12.418278 0,8 C0,3.581722 3.581722,0 8,0 Z M10.2858859,3.19951938 C9.8437927,3.04162893 9.35740982,3.27202082 9.19951938,3.71411406 L7.151,9.448 L6.10104076,8.39895924 C5.76909512,8.06701359 5.23090488,8.06701359 4.89895924,8.39895924 C4.56701359,8.73090488 4.56701359,9.26909512 4.89895924,9.60104076 L6.89895924,11.6010408 C7.34019169,12.0422732 8.09060775,11.87353 8.30048062,11.2858859 L10.8004806,4.28588594 C10.9583711,3.8437927 10.7279792,3.35740982 10.2858859,3.19951938 Z" id="icon"></path>
                            </g>
                        </g>
                    </g>
                </g>
            </g>
        </g>
    </g>
</svg>